<svg width="24" height="24" viewBox="0 0 24 24" fill="none" xmlns="http://www.w3.org/2000/svg">
  <path d="M21.9 23.0002H2.1C1.47667 23.0002 1 22.5251 1 21.9038V7.79752C1 7.17625 1.47667 6.70117 2.1 6.70117H21.9C22.5233 6.70117 23 7.17625 23 7.79752V21.9404C23 22.5251 22.5233 23.0002 21.9 23.0002ZM3.2 20.8075H20.8V8.89386H3.2V20.8075Z" fill="#BDC1BE"/>
  <path d="M21.9 22.9998C21.2767 22.9998 20.8 22.5248 20.8 21.9035V4.28888H3.2V21.9035C3.2 22.5248 2.72333 22.9998 2.1 22.9998C1.47667 22.9998 1 22.5248 1 21.9035V3.19254C1 2.57127 1.47667 2.09619 2.1 2.09619H21.9C22.5233 2.09619 23 2.57127 23 3.19254V21.9035C23 22.5248 22.5233 22.9998 21.9 22.9998Z" fill="#BDC1BE"/>
  <path d="M17.3167 5.78738C16.7667 5.78738 16.3267 5.34884 16.3267 4.80066V1.98671C16.3267 1.43854 16.7667 1 17.3167 1C17.8667 1 18.3067 1.43854 18.3067 1.98671V4.83721C18.27 5.34884 17.8667 5.78738 17.3167 5.78738Z" fill="#BDC1BE"/>
  <path d="M12 5.78738C11.45 5.78738 11.01 5.34884 11.01 4.80066V1.98671C11.0467 1.43854 11.4867 1 12 1C12.5133 1 12.99 1.43854 12.99 1.98671V4.83721C12.99 5.34884 12.55 5.78738 12 5.78738Z" fill="#BDC1BE"/>
  <path d="M6.71998 5.78738C6.16998 5.78738 5.72998 5.34884 5.72998 4.80066V1.98671C5.72998 1.43854 6.16998 1 6.71998 1C7.26998 1 7.70998 1.43854 7.70998 1.98671V4.83721C7.67331 5.34884 7.23331 5.78738 6.71998 5.78738Z" fill="#BDC1BE"/>
</svg>