<svg width="24" height="24" viewBox="0 0 24 24" fill="none" xmlns="http://www.w3.org/2000/svg">
<path
                  d="M22.8449 20.9362L22.8449 20.9363C23.3748 21.4661 23.3748 22.33 22.8449 22.86C22.3168 23.388 21.4437 23.3677 20.9344 22.8729L13.0147 14.0172L12.4861 13.4261L11.9253 13.9869L11.3236 14.5887L3.2706 6.5357C2.61068 5.87578 2.19872 4.96365 2.11009 3.86589L2.11009 3.86589C2.03243 2.90414 2.20209 1.82609 2.62098 0.75H2.65869L13.434 11.5253L22.8449 20.9362Z"
                  stroke="#BDC1BE"
                  stroke-width="1.5"
                ></path>
                <path
                  d="M1.15521 20.914L7.34727 14.7219L9.27094 16.6455L3.07884 22.8376C2.53692 23.3795 1.65994 23.3424 1.15521 22.8376C0.625348 22.3078 0.625348 21.4438 1.15521 20.914Z"
                  stroke="#BDC1BE"
                  stroke-width="1.5"
                ></path>
                <path
                  d="M15.1892 4.89093L15.7195 4.3606L19.0025 1.07763L19.4669 1.54203L16.7143 4.29465L16.1839 4.82498L16.6484 5.28943L16.7142 5.35532L17.1787 5.81976L17.709 5.28943L20.4617 2.53681L20.9261 3.00126L17.6432 6.28422L17.6431 6.28426L17.1128 6.81455M15.1892 4.89093L15.1233 4.82498L15.6536 4.29465L18.9366 1.0117L18.4722 0.547298L14.0286 4.99087C13.4201 5.59936 13.0568 6.4073 13.0054 7.26595C12.9924 7.4835 12.9431 7.69748 12.8613 7.90102M15.1892 4.89093L15.6536 5.35531L16.6484 6.35009L17.1128 6.81455M15.1892 4.89093L14.5589 5.5212C14.0801 6 13.7945 6.63517 13.7541 7.31064L13.0054 7.26595L13.7541 7.31075C13.7465 7.43703 13.7302 7.56188 13.7056 7.68461M12.8613 7.90102L16.0924 11.1321M12.8613 7.90102L13.3917 7.37069L13.7056 7.68461M12.8613 7.90102L13.5572 8.18069C13.6215 8.02065 13.6715 7.85467 13.7056 7.68461M16.0924 11.1321C16.2959 11.0502 16.5099 11.0009 16.7274 10.9879C17.5861 10.9367 18.394 10.5733 19.0025 9.96478M16.0924 11.1321L15.8124 10.4363C15.9726 10.3718 16.1387 10.3219 16.3087 10.2878M16.0924 11.1321L16.6227 10.6017L16.3087 10.2878M19.0025 9.96478L23.4461 5.52125L22.9816 5.05675L19.6986 8.33971L19.1683 8.87002L19.1024 8.80419M19.0025 9.96478L18.4722 9.43445C17.9933 9.91331 17.3581 10.199 16.6828 10.2393L16.6827 10.2393C16.5565 10.2468 16.4316 10.2631 16.3087 10.2878M19.0025 9.96478L18.4722 9.43445L19.1024 8.80419M19.1024 8.80419L19.6328 8.27388L22.9158 4.99092L22.4513 4.52642L19.1683 7.80937L18.7038 7.34491L18.7038 7.34492L18.1734 6.81459L18.7038 6.28425L18.7038 6.28426L21.4564 3.53159L20.992 3.06714L17.709 6.35009L17.709 6.35014L17.1787 6.88042L17.1128 6.81455M19.1024 8.80419L18.6379 8.33972L17.6431 7.34494L17.1128 6.81461L17.1128 6.81455M13.7056 7.68461L16.3087 10.2878"
                  stroke="#BDC1BE"
                  stroke-width="1.5"
                ></path>

                </svg>