<svg width="24" height="24" viewBox="0 0 24 24" fill="none" xmlns="http://www.w3.org/2000/svg">
  <path d="M12 23C5.92977 23 1 18.0702 1 12C1 5.92977 5.92977 1 12 1C18.0702 1 23 5.92977 23 12C23 18.0702 18.0702 23 12 23ZM12 3.20736C7.14381 3.20736 3.20736 7.14381 3.20736 12C3.20736 16.8562 7.14381 20.7926 12 20.7926C16.8562 20.7926 20.7926 16.8562 20.7926 12C20.7926 7.14381 16.8562 3.20736 12 3.20736Z" fill="#1d765d"/>
  <path d="M17.3531 9.72698L11.3031 15.8136C11.0831 16.0336 10.8264 16.1436 10.5331 16.1436C10.2398 16.1436 9.94643 16.0336 9.7631 15.8136L6.6831 12.6603C6.2431 12.2203 6.27977 11.5236 6.6831 11.1203C7.1231 10.6803 7.81977 10.717 8.2231 11.1203L10.5331 13.467L15.7764 8.15031C16.2164 7.71031 16.9131 7.71031 17.3164 8.15031C17.7564 8.59031 17.7931 9.28698 17.3531 9.72698Z" fill="#1d765d"/>
</svg>
