<svg width="15" height="22" viewBox="0 0 15 22" fill="none" xmlns="http://www.w3.org/2000/svg">
  <g clip-path="url(#clip0)">
    <path d="M8.09859 22H4.29577C3.69718 22 3.23944 21.5225 3.23944 20.8982V13.4424H1.05634C0.457746 13.4424 0 12.9649 0 12.3406V8.59432C0 7.96995 0.457746 7.49249 1.05634 7.49249H3.23944V6.79466C3.23944 3.04841 6.16197 0 9.75352 0H13.9789C14.5775 0 15.0352 0.477462 15.0352 1.10184V5.06845C15.0352 5.69282 14.5775 6.17028 13.9789 6.17028H10.3521C9.6831 6.17028 9.11972 6.75793 9.11972 7.45576V7.52921H11.5493C12.1479 7.52921 12.6056 8.00668 12.6056 8.63105V12.3773C12.6056 13.0017 12.1479 13.4791 11.5493 13.4791H9.15493V20.9349C9.15493 21.5225 8.66197 22 8.09859 22ZM5.35211 19.7963H7.04225V12.3406C7.04225 11.7162 7.5 11.2387 8.09859 11.2387H10.5282V9.69616H8.09859C7.5 9.69616 7.04225 9.2187 7.04225 8.59432V7.41903C7.04225 5.50918 8.52113 3.92988 10.3873 3.92988H12.9225V2.20367H9.75352C7.32394 2.20367 5.35211 4.26043 5.35211 6.79466V8.59432C5.35211 9.2187 4.89437 9.69616 4.29577 9.69616H2.11268V11.2387H4.29577C4.89437 11.2387 5.35211 11.7162 5.35211 12.3406V19.7963Z" fill="black"/>
  </g>
  <defs>
    <clipPath id="clip0">
      <rect width="15" height="22" fill="white"/>
    </clipPath>
  </defs>
</svg>
