<svg width="24" height="24" viewBox="0 0 24 24" fill="none" xmlns="http://www.w3.org/2000/svg">
  <path d="M3 8H21V20C21 21.6569 19.6569 23 18 23H6C4.34315 23 3 21.6569 3 20V8Z" stroke="#BDC1BE" stroke-width="2"/>
  <path fill-rule="evenodd" clip-rule="evenodd" d="M5.2917 7C6.94083 5.15736 9.33517 4 12.0001 4C14.665 4 17.0593 5.15736 18.7084 7L5.2917 7ZM2.77914 7C2.91281 6.79495 3.05313 6.59465 3.19977 6.39942C5.20493 3.7299 8.40062 2 12.0001 2C15.5995 2 18.7952 3.7299 20.8004 6.39942C20.947 6.59465 21.0873 6.79495 21.221 7H23C23.5523 7 24 7.44772 24 8C24 8.55229 23.5523 9 23 9L1 9C0.447715 9 0 8.55228 0 8C0 7.44772 0.447715 7 1 7H2.77914Z" fill="#BDC1BE"/>
  <circle cx="12" cy="1" r="1" fill="#BDC1BE"/>
</svg>
