<svg width="24" height="24" viewBox="0 0 24 24" fill="none" xmlns="http://www.w3.org/2000/svg">
  <path d="M12 23C5.92977 23 1 18.0702 1 12C1 5.92977 5.92977 1 12 1C18.0702 1 23 5.92977 23 12C23 18.0702 18.0702 23 12 23ZM12 3.20736C7.14381 3.20736 3.20736 7.14381 3.20736 12C3.20736 16.8562 7.14381 20.7926 12 20.7926C16.8562 20.7926 20.7926 16.8562 20.7926 12C20.7926 7.14381 16.8562 3.20736 12 3.20736Z" fill="#03c480"/>
  <path d="M12.3678 21.8596C12.1839 21.8596 12.0367 21.8228 11.8528 21.7492C8.21062 19.8362 5.92969 16.1205 5.92969 12.0001C5.92969 7.87967 8.21062 4.16395 11.8528 2.25091C12.4046 1.95659 13.0668 2.17733 13.3243 2.72917C13.6187 3.28101 13.3979 3.94322 12.8461 4.20074C9.97651 5.74589 8.17383 8.72583 8.17383 12.0001C8.17383 15.2743 9.97651 18.2543 12.8829 19.7994C13.4347 20.0937 13.6187 20.7559 13.3611 21.271C13.1404 21.6757 12.7725 21.8596 12.3678 21.8596Z" fill="#03c480"/>
  <path d="M11.6322 21.8595C11.2275 21.8595 10.8596 21.6388 10.6388 21.2709C10.3445 20.719 10.5653 20.0568 11.1171 19.7993C14.0235 18.2909 15.8261 15.2742 15.8261 12C15.8261 8.72571 14.0235 5.74578 11.1171 4.20063C10.5653 3.90631 10.3813 3.2441 10.6388 2.72905C10.9332 2.17721 11.5954 1.99327 12.1104 2.25079C15.7526 4.16384 18.0335 7.87956 18.0335 12C18.0335 16.1204 15.7526 19.8361 12.1104 21.7491C12.0001 21.8227 11.8161 21.8595 11.6322 21.8595Z" fill="#03c480"/>
  <path d="M21.8963 13.1038H2.10368C1.47826 13.1038 1 12.6256 1 12.0002C1 11.3747 1.47826 10.8965 2.10368 10.8965H21.8963C22.5217 10.8965 23 11.3747 23 12.0002C23 12.6256 22.5217 13.1038 21.8963 13.1038Z" fill="#03c480"/>
</svg>
