<svg width="24" height="24" viewBox="0 0 24 24" fill="none" xmlns="http://www.w3.org/2000/svg">
  <path d="M8.81 20H2.1C1.47667 20 1 19.5094 1 18.8679C1 18.2264 1.47667 17.7358 2.1 17.7358H8.81C9.43333 17.7358 9.91 18.2264 9.91 18.8679C9.91 19.5094 9.39667 20 8.81 20Z" fill="white"/>
  <path d="M8.81 6.26415H2.1C1.47667 6.26415 1 5.77358 1 5.13208C1 4.49057 1.47667 4 2.1 4H8.81C9.43333 4 9.91 4.49057 9.91 5.13208C9.91 5.77358 9.39667 6.26415 8.81 6.26415Z" fill="white"/>
  <path d="M7.30703 20C6.6837 20 6.20703 19.5094 6.20703 18.8679C6.20703 18.2264 6.6837 17.7358 7.30703 17.7358H21.9004C22.5237 17.7358 23.0004 18.2264 23.0004 18.8679C23.0004 19.5094 22.5237 20 21.9004 20H7.30703C7.3437 20 7.3437 20 7.30703 20Z" fill="white"/>
  <path d="M7.30703 13.1321C6.6837 13.1321 6.20703 12.6415 6.20703 12C6.20703 11.3585 6.6837 10.8679 7.30703 10.8679H21.9004C22.5237 10.8679 23.0004 11.3585 23.0004 12C23.0004 12.6415 22.5237 13.1321 21.9004 13.1321H7.30703C7.3437 13.1321 7.3437 13.1321 7.30703 13.1321Z" fill="white"/>
  <path d="M7.30703 6.26415C6.6837 6.26415 6.20703 5.77358 6.20703 5.13208C6.20703 4.49057 6.6837 4 7.30703 4H21.9004C22.5237 4 23.0004 4.49057 23.0004 5.13208C23.0004 5.77358 22.5237 6.26415 21.9004 6.26415H7.30703C7.3437 6.26415 7.3437 6.26415 7.30703 6.26415Z" fill="white"/>
</svg>
