<svg width="24" height="24" viewBox="0 0 24 24" fill="none" xmlns="http://www.w3.org/2000/svg">
  <g clip-path="url(#clip0)">
    <path d="M12.0001 12.511C11.7667 12.511 11.5334 12.4447 11.3667 12.279L2.36672 4.75659C1.93339 4.39206 1.90006 3.76243 2.23339 3.36477C2.60006 2.93397 3.23339 2.90083 3.63339 3.23222L12.0001 10.1913L20.3667 3.23222C20.8001 2.8677 21.4334 2.93397 21.7667 3.36477C22.1334 3.79557 22.0667 4.4252 21.6334 4.75659L12.6667 12.279C12.4667 12.4116 12.2334 12.511 12.0001 12.511Z" fill="#2D302D"/>
    <path d="M21 20H3C2.43333 20 2 19.5692 2 19.0058V3.99415C2 3.4308 2.43333 3 3 3H21C21.5667 3 22 3.4308 22 3.99415V19.0058C22 19.5692 21.5667 20 21 20ZM4 18.0117H20V4.9883H4V18.0117Z" fill="#2D302D"/>
  </g>
  <defs>
    <clipPath id="clip0">
      <rect width="20" height="17" fill="white" transform="translate(2 3)"/>
    </clipPath>
  </defs>
</svg>
