<svg width="61" height="48" viewBox="0 0 61 48" fill="none" xmlns="http://www.w3.org/2000/svg">
  <path d="M13.7925 0C17.7739 0 21.0443 1.27059 23.6037 3.81177C26.1632 6.25883 27.4429 9.50589 27.4429 13.5529C27.4429 15.4353 27.2059 17.3177 26.7319 19.2C26.258 21.0824 25.2626 23.9059 23.7459 27.6706L15.4988 48H1.42191L7.53613 25.6941C5.16628 24.6588 3.31779 23.1059 1.99068 21.0353C0.663559 18.9647 0 16.4706 0 13.5529C0 9.50589 1.27972 6.25883 3.83916 3.81177C6.4934 1.27059 9.81119 0 13.7925 0ZM47.3497 0C51.331 0 54.6014 1.27059 57.1608 3.81177C59.7203 6.25883 61 9.50589 61 13.5529C61 15.4353 60.763 17.3177 60.289 19.2C59.8151 21.0824 58.8197 23.9059 57.303 27.6706L49.056 48H34.979L41.0932 25.6941C38.7234 24.6588 36.8749 23.1059 35.5478 21.0353C34.2207 18.9647 33.5571 16.4706 33.5571 13.5529C33.5571 9.50589 34.8368 6.25883 37.3963 3.81177C40.0505 1.27059 43.3683 0 47.3497 0Z" fill="#03C486"/>
</svg>